<svg width="18" height="18" viewBox="0 0 18 18" fill="none" xmlns="http://www.w3.org/2000/svg">
<path d="M5.83334 14C4.91667 14 4.175 14.75 4.175 15.6666C4.175 16.5833 4.91667 17.3333 5.83334 17.3333C6.75 17.3333 7.5 16.5833 7.5 15.6666C7.5 14.75 6.75 14 5.83334 14ZM0.833336 1.49996C0.833336 1.95829 1.20834 2.33329 1.66667 2.33329H2.5L5.5 8.65829L4.375 10.6916C3.76667 11.8083 4.56667 13.1666 5.83334 13.1666H15C15.4583 13.1666 15.8333 12.7916 15.8333 12.3333C15.8333 11.875 15.4583 11.5 15 11.5H5.83334L6.75 9.83329H12.9583C13.5833 9.83329 14.1333 9.49163 14.4167 8.97496L17.4 3.56663C17.7083 3.01663 17.3083 2.33329 16.675 2.33329H4.34167L3.78334 1.14163C3.65 0.849959 3.35 0.666626 3.03334 0.666626H1.66667C1.20834 0.666626 0.833336 1.04163 0.833336 1.49996ZM14.1667 14C13.25 14 12.5083 14.75 12.5083 15.6666C12.5083 16.5833 13.25 17.3333 14.1667 17.3333C15.0833 17.3333 15.8333 16.5833 15.8333 15.6666C15.8333 14.75 15.0833 14 14.1667 14Z" fill="#01384D"/>
</svg>
